# xmcd
#
# Track frame offsets: 
#        150
#        30870
#        56922
#        77039
#        105300
#        127834
#        157307
#        173858
#        190332
#        214552
#        237045
#        258151
#        286774
#        312464
#
# Disc length: 4399 seconds
#
# Revision: 0
# Processed by: cddbd v1.5.2PL0 Copyright (c) Steve Scherf et al.
# Submitted via: ExactAudioCopy v1.0b3
#
DISCID=b4112d0e
DTITLE=Gregg Allman - All My Friends: Celebrating The Songs and Voice Of
DTITLE=Gregg Allman [CD1]
DYEAR=2014
DGENRE=Blues-Rock
TTITLE0=Warren Haynes - Come and Go Blues
TTITLE1=Warren Haynes and Derek Trucks - End of the Line
TTITLE2=Susan Tedeschi and Derek Trucks - Stand Back
TTITLE3=Devon Allman, Jimmy Hall and Robert Randolph - You Can t Lose 
TTITLE3=What You Ain't Never Had
TTITLE4=Sam Moore  - Please Call Home
TTITLE5=Keb' Mo'  - Just Another Rider
TTITLE6=Brantley Gilbert  - Before the Bullets Fly
TTITLE7=Dr. John - Let This Be a Lesson to Ya
TTITLE8=Pat Monahan - Queen of Hearts
TTITLE9=John Hiatt - One Way Out
TTITLE10=Taj Mahal and Gregg Allman - Statesboro Blues
TTITLE11=Widespread Panic  - Just Ain't Easy
TTITLE12=Widespread Panic and Derek Trucks - Wasted Words
TTITLE13=Trace Adkins - I'm No Angel
EXTD=
EXTT0=
EXTT1=
EXTT2=
EXTT3=
EXTT4=
EXTT5=
EXTT6=
EXTT7=
EXTT8=
EXTT9=
EXTT10=
EXTT11=
EXTT12=
EXTT13=
PLAYORDER=
